<svg xmlns="http://www.w3.org/2000/svg" width="59.985" height="59.998" viewBox="0 0 59.985 59.998">
  <g id="Logo" transform="translate(-358 -375.252)">
    <g id="bi-logo" transform="translate(358 375.252)">
      <g id="Group_10013" data-name="Group 10013" transform="translate(0 0)">
        <path id="Path_288" data-name="Path 288" d="M75.585,89.2H42.8A13.615,13.615,0,0,1,29.2,75.6V42.8A13.615,13.615,0,0,1,42.8,29.2H75.585a13.615,13.615,0,0,1,13.6,13.6V75.585A13.618,13.618,0,0,1,75.585,89.2ZM42.8,32.012A10.8,10.8,0,0,0,32.012,42.8V75.585A10.8,10.8,0,0,0,42.8,86.372H75.585A10.8,10.8,0,0,0,86.372,75.585V42.8A10.8,10.8,0,0,0,75.585,32.012Z" transform="translate(-29.2 -29.2)" fill="#353945"/>
      </g>
      <g id="Group_10014" data-name="Group 10014" transform="translate(15.054 11.97)">
        <path id="Path_289" data-name="Path 289" d="M160.937,141.416c0,8.111-3.927,11.929-10.638,11.929-6.019,0-10.3-3.329-10.3-9.945V119.99a2.69,2.69,0,0,1,5.38,0v11.44a8.168,8.168,0,0,1,5.475-1.984C157.105,129.433,160.937,133.319,160.937,141.416Zm-15.557,2c0,3.437,2.038,5.367,4.918,5.367,3.437,0,5.326-2.486,5.326-7.364,0-4.918-1.943-7.4-5.326-7.4a6.813,6.813,0,0,0-4.918,2.541Z" transform="translate(-140 -117.3)" fill="#353945"/>
        <path id="Path_290" data-name="Path 290" d="M312.7,146.888c0-2.283,1.141-3.288,3.179-3.288,2.092,0,3.234.992,3.234,3.288a3.207,3.207,0,0,1-6.413,0Zm5.869,26.507a2.69,2.69,0,0,1-5.38,0v-18a2.69,2.69,0,1,1,5.38,0Z" transform="translate(-289.236 -140.027)" fill="#353945"/>
      </g>
    </g>
  </g>
</svg>
